<svg width="76" height="51" viewBox="0 0 76 51" fill="none" xmlns="http://www.w3.org/2000/svg">
<path d="M75.7364 12.664C75.5574 12.3909 75.2744 12.1695 74.9498 12.0145C74.904 11.8669 74.8374 11.7229 74.7251 11.5864C72.1114 8.45335 69.7724 5.14316 67.7289 1.69274C67.2461 0.877192 65.8893 0.567208 65.0194 1.06171C64.6157 1.2905 64.341 1.60787 64.1912 1.96214C53.5367 8.53084 42.8821 15.0959 32.2234 21.6646C29.618 23.2698 27.0127 24.8751 24.4115 26.4804C21.032 21.7236 18.0229 16.7712 15.3967 11.6491C15.4175 11.4499 15.405 11.2432 15.3301 11.0402C15.0096 10.1619 13.9525 9.51615 12.8954 9.81506C9.28699 10.8299 5.68275 11.841 2.07436 12.8559C1.27526 13.081 0.650975 13.7526 0.621841 14.4943C-0.0856876 15.0479 -0.152279 15.9225 0.234781 16.6864C4.7921 25.6759 10.2234 34.3112 16.4705 42.4667C18.2518 44.7916 20.0997 47.0759 22.0059 49.3196C22.6468 50.0761 23.7164 50.4672 24.7153 49.9506C25.1356 49.7329 25.4727 49.3232 25.6267 48.873C37.8129 39.4148 50.4984 30.4733 63.6543 22.1C67.4084 19.7124 71.1999 17.3691 75.0247 15.07C75.9071 14.5349 76.3024 13.5201 75.7364 12.664ZM33.1723 38.5661C30.0217 40.8836 26.9128 43.238 23.8246 45.6219C17.7898 38.3114 12.4001 30.5877 7.75956 22.517C6.51098 20.3508 5.32899 18.1551 4.18862 15.9409C6.83561 15.1955 9.4826 14.4537 12.1296 13.7083C14.9888 19.2511 18.2976 24.6057 22.0433 29.7168C22.2847 30.0452 22.6301 30.2888 23.013 30.4327C23.6124 30.7205 24.3657 30.7722 24.94 30.4179C27.9949 28.5359 31.0456 26.6538 34.1004 24.7718C32.7853 27.3697 31.57 30.0083 30.4837 32.6874C30.0509 33.7576 31.9695 34.2189 32.4024 33.1561C33.8382 29.6208 35.4905 26.163 37.3301 22.7827C38.5121 22.052 39.6941 21.3251 40.8802 20.5944C39.7357 23.4064 38.5912 26.2184 37.4425 29.0304C37.0055 30.1006 38.9283 30.5618 39.3611 29.499C40.8053 25.9527 42.2495 22.4063 43.6937 18.8599C45.2752 17.8857 46.8568 16.9115 48.4383 15.9372C46.9234 18.8563 45.5374 21.8306 44.3097 24.8567C43.8768 25.9268 45.7955 26.3881 46.2283 25.3253C47.8098 21.4247 49.6577 17.62 51.7345 13.9076C52.8499 13.2212 53.9653 12.5311 55.0807 11.8447C53.8113 14.963 52.542 18.0813 51.2684 21.2033C50.8314 22.2735 52.7542 22.7348 53.1871 21.6719C54.7561 17.8193 56.3252 13.9629 57.8942 10.1103C59.355 9.20986 60.8159 8.30943 62.2726 7.41269C60.4913 10.7339 58.8889 14.1253 57.4863 17.5868C57.0535 18.657 58.9721 19.1183 59.405 18.0555C61.128 13.8079 63.1507 9.66376 65.4606 5.64135C65.4981 5.57861 65.523 5.51957 65.5397 5.45684C67.2336 8.12491 69.1065 10.7044 71.1541 13.1769C58.0648 21.1147 45.3793 29.5876 33.1723 38.5661Z" fill="#38B157"/>
</svg>
