<svg width="73" height="69" viewBox="0 0 73 69" fill="none" xmlns="http://www.w3.org/2000/svg">
<path d="M22.278 22.4898C22.278 17.2818 22.278 12.4923 22.278 7.7085C22.278 7.13355 22.2947 6.55859 22.3224 5.97806C22.55 1.47333 22.9551 0.931864 27.4784 0.669507C33.3892 0.329 39.3056 0.13921 45.222 -0.000342033C49.1015 -0.0896552 49.9284 1.12165 49.6565 5.13516C49.3457 9.71805 49.2791 14.3233 49.1792 18.9173C49.1237 21.2785 50.1504 22.1493 52.6979 22.0712C57.5431 21.9205 62.4105 22.2386 67.2613 22.4117C69.6034 22.4954 71.163 23.9467 71.4294 26.0847C72.1564 31.9626 72.878 37.8796 72.9945 43.791C73.0611 47.2575 71.3017 48.2623 67.7219 48.3627C62.7657 48.5079 57.804 48.7032 52.8478 48.9209C50.6777 49.0158 49.7508 49.8922 50.0061 52.4042C50.4113 56.3953 50.3114 60.4479 50.3391 64.4726C50.3502 66.2868 49.6176 67.6655 47.5641 67.8163C41.7643 68.2349 35.9645 68.8378 30.1591 68.9773C25.6247 69.089 25.3361 68.5084 25.1807 63.9981C25.0308 59.6888 24.8643 55.3794 24.5757 51.0756C24.3981 48.4353 22.9329 47.3077 20.1801 47.3691C15.6013 47.4696 11.0114 47.3635 6.43813 47.1291C1.93703 46.9002 1.24327 46.3197 0.793717 41.9657C0.321962 37.4107 0.0333586 32.7943 5.82079e-05 28.1947C-0.0332422 23.3495 0.97132 22.5122 5.68887 22.4954C11.2056 22.4787 16.7224 22.4898 22.278 22.4898ZM43.4737 40.3692C43.1019 40.0064 42.73 39.6491 42.3637 39.2863C45.2775 35.8031 48.1857 32.3199 51.3826 28.4906C43.7512 26.9387 42.3693 34.4913 37.6406 36.7911C37.8404 35.6691 38.2511 34.7648 38.8394 33.9945C40.2935 32.091 41.8031 30.2322 43.3405 28.3957C44.778 26.6764 44.8834 24.8566 43.8955 22.3726C40.6487 25.8781 37.6461 29.1269 34.6436 32.3701C34.355 32.1357 34.0719 31.8956 33.7833 31.6612C34.3328 30.8797 34.8489 30.0759 35.4317 29.3167C37.9347 26.0512 40.51 22.8303 42.9409 19.509C43.5792 18.6382 43.7901 17.4604 44.2008 16.4221C43.9344 16.2547 43.668 16.0872 43.4071 15.9197C39.9605 19.2913 36.5139 22.6573 33.0673 26.0289C32.7954 25.7721 32.5234 25.5097 32.2515 25.253C32.751 24.5664 33.2061 23.8407 33.7611 23.2043C36.7748 19.7379 39.7829 16.2658 42.8577 12.8608C44.4006 11.1471 44.3728 9.40545 43.3572 7.02749C40.4656 10.1814 37.8071 13.0785 35.1542 15.97C34.8767 15.7132 34.5936 15.4564 34.3161 15.1996C36.6083 12.1239 38.9005 9.0482 41.3036 5.82734C38.734 5.12958 36.9857 5.68779 35.6037 7.48522C34.9044 8.3951 34.1885 9.31614 33.3559 10.092C32.9785 10.4437 32.2792 10.4437 31.7242 10.6056C31.752 10.0195 31.5799 9.30497 31.8519 8.86957C32.5234 7.78665 33.4003 6.83212 34.2884 5.69895C29.7318 4.54347 28.3942 5.5594 28.4941 9.56733C28.594 13.4078 28.594 17.2483 28.6217 21.0887C28.6661 26.989 26.818 28.8366 20.9238 28.6301C16.6281 28.4794 12.3379 28.2282 8.0532 27.9324C6.24388 27.7984 5.30037 28.3287 5.55012 30.3103C5.93863 33.3525 6.29938 36.3948 6.66569 39.4426C6.90434 41.4075 8.0421 42.3173 9.95687 42.2392C13.8641 42.0829 17.7769 41.9768 21.6786 41.6866C24.5313 41.4745 26.9345 42.2783 28.1944 44.8516C29.1767 46.8556 29.8261 49.1275 30.1369 51.3491C30.5865 54.5756 30.7419 57.8578 30.7363 61.1178C30.7308 63.5962 31.8574 64.3665 34.0608 64.1656C36.8136 63.9144 39.5665 63.5906 42.3249 63.4232C44.3562 63.3004 45.2886 62.2956 45.1998 60.314C45.0499 56.9591 44.9223 53.6043 44.667 50.2606C44.1897 43.9473 44.1564 43.7296 50.55 43.7408C55.0067 43.7519 58.4755 42.7807 60.6234 38.4434C61.5836 36.5064 63.2208 34.8932 64.5973 33.1795C65.6018 31.9291 66.7285 30.4834 65.1578 29.2553C64.675 28.8757 62.6048 29.8972 61.7501 30.7625C58.8696 33.6986 56.2722 36.9139 53.4139 39.878C52.5869 40.7376 51.2605 41.1116 50.1615 41.7033C50.7554 40.6651 51.205 39.5096 51.9653 38.6164C54.8791 35.1779 57.8928 31.8231 61.1895 28.0775C57.6874 27.3965 55.1122 27.603 53.1142 29.8358C50.9441 32.2585 48.9294 34.8206 46.7649 37.2488C45.777 38.3708 44.5837 39.3309 43.4737 40.3692ZM60.1239 42.7695C66.0736 43.925 67.4111 42.2783 65.896 35.6244C63.8425 38.1643 62.0831 40.3469 60.1239 42.7695Z" fill="#E94E1B"/>
</svg>
