<svg xmlns="http://www.w3.org/2000/svg" xmlns:xlink="http://www.w3.org/1999/xlink">
  <symbol id="icon-hexagon-1" viewBox="0 0 208 236" fill="none">
    <path d="M130.025 32.844C131.443 32.6651 132.848 33.2561 133.712 34.3945L187.133 104.788C187.997 105.927 188.188 107.44 187.634 108.757L153.381 190.217C152.827 191.535 151.612 192.457 150.195 192.635L62.5214 203.702C61.1036 203.881 59.698 203.29 58.8341 202.152L5.41357 131.758C4.54967 130.619 4.35872 129.107 4.91264 127.789L39.1653 46.3287C39.7192 45.0114 40.9338 44.0896 42.3516 43.9106L130.025 32.844Z" stroke="#FFA200" stroke-width="2"/>
  </symbol>
  <symbol id="icon-hexagon-2" viewBox="0 0 211 231" fill="none">
    <path d="M15.8769 98.1978C26.2626 126.511 36.6553 154.828 47.041 183.141C49.0379 188.587 57.6279 185.804 55.6225 180.332C45.2367 152.019 34.844 123.702 24.4583 95.3885C22.4545 89.9393 13.8645 92.7225 15.8769 98.1978Z" fill="#FFA200"/>
    <path d="M23.9787 95.9915C42.3497 74.3554 61.1709 53.1047 80.4144 32.2428C84.3562 27.9693 77.6055 21.9657 73.6533 26.2426C54.4114 47.1097 35.5955 68.3587 17.2193 89.9966C13.4646 94.4174 20.2031 100.437 23.9787 95.9915Z" fill="#FFA200"/>
    <path d="M161.196 42.8624C133.587 36.2789 105.843 30.2725 77.9877 24.8295C72.2766 23.716 70.3762 32.546 76.0838 33.6664C103.939 39.1094 131.683 45.1158 159.293 51.6993C164.964 53.0458 166.851 44.2088 161.196 42.8624Z" fill="#FFA200"/>
    <path d="M157.797 50.683C167.137 79.3559 176.483 108.027 185.823 136.7C187.627 142.226 196.206 139.429 194.405 133.891C185.064 105.218 175.719 76.5465 166.378 47.8737C164.575 42.3473 155.99 45.1462 157.797 50.683Z" fill="#FFA200"/>
    <path d="M188.578 133.643C170.207 155.279 151.386 176.53 132.142 197.392C128.2 201.665 134.951 207.669 138.903 203.392C158.147 182.53 176.968 161.28 195.339 139.643C199.092 135.217 192.353 129.198 188.578 133.643Z" fill="#FFA200"/>
    <path d="M50.66 187.002C78.2693 193.585 106.014 199.592 133.869 205.035C139.58 206.148 141.48 197.318 135.773 196.198C107.918 190.755 80.1732 184.748 52.5639 178.165C46.8923 176.818 45.0057 185.655 50.66 187.002Z" fill="#FFA200"/>
    <path d="M136.572 158.233C139.096 167.005 141.614 175.773 144.138 184.545C144.871 187.102 148.789 185.814 148.058 183.261C145.534 174.49 143.016 165.722 140.492 156.95C139.759 154.392 135.841 155.681 136.572 158.233Z" fill="#FFA200"/>
    <path d="M152.033 144.57C154.557 153.342 157.075 162.11 159.599 170.881C160.332 173.439 164.25 172.151 163.519 169.598C160.994 160.827 158.477 152.059 155.952 143.287C155.214 140.731 151.296 142.02 152.033 144.57Z" fill="#FFA200"/>
    <path d="M168.147 128.29C170.671 137.061 173.189 145.829 175.713 154.601C176.446 157.158 180.364 155.87 179.633 153.317C177.108 144.546 174.591 135.778 172.066 127.006C171.328 124.45 167.41 125.739 168.147 128.29Z" fill="#FFA200"/>
  </symbol>
  <symbol id="icon-hexagon-3" viewBox="0 0 223 235" fill="none">
    <path d="M150.39 94.4337C152.03 95.1413 153.168 96.6702 153.376 98.4445L160.773 161.759C160.98 163.533 160.225 165.284 158.792 166.35L107.659 204.414C106.226 205.48 104.333 205.702 102.693 204.994L44.1618 179.743C42.5216 179.035 41.3834 177.506 41.1761 175.732L33.7788 112.418C33.5715 110.643 34.3265 108.893 35.7594 107.827L86.8929 69.7629C88.3258 68.6962 90.2189 68.475 91.8591 69.1826L150.39 94.4337Z" fill="#FFA200"/>
    <path d="M173.271 58.6364C174.747 59.2733 175.772 60.6493 175.958 62.2461L183.355 125.561C183.542 127.158 182.863 128.733 181.573 129.693L130.439 167.756C129.15 168.716 127.446 168.915 125.97 168.279L67.439 143.028C65.9628 142.391 64.9385 141.015 64.752 139.418L57.3546 76.1031C57.168 74.5063 57.8475 72.9312 59.1372 71.9713L110.271 33.9076C111.56 32.9476 113.264 32.7485 114.74 33.3854L173.271 58.6364Z" stroke="#FFA200"/>
    <path d="M160.613 86.8561C162.253 87.5637 163.392 89.0926 163.599 90.8668L170.996 154.182C171.203 155.956 170.448 157.706 169.016 158.773L117.882 196.836C116.449 197.903 114.556 198.124 112.916 197.416L54.385 172.165C52.7448 171.458 51.6067 169.929 51.3994 168.155L44.0021 104.84C43.7948 103.066 44.5498 101.316 45.9827 100.249L97.1162 62.1852C98.5491 61.1186 100.442 60.8974 102.082 61.605L160.613 86.8561Z" fill="#FFA200" fill-opacity="0.15"/>
    <path d="M150.39 94.4337C152.03 95.1413 153.168 96.6702 153.376 98.4445L160.773 161.759C160.98 163.533 160.225 165.284 158.792 166.35L107.659 204.414C106.226 205.48 104.333 205.702 102.693 204.994L44.1618 179.743C42.5216 179.035 41.3834 177.506 41.1761 175.732L33.7788 112.418C33.5715 110.643 34.3265 108.893 35.7594 107.827L86.8929 69.7629C88.3258 68.6962 90.2189 68.475 91.8591 69.1826L150.39 94.4337Z" fill="#FFA200"/>
    <path d="M178.64 55.0803C180.116 55.7171 181.141 57.0931 181.327 58.69L188.725 122.005C188.911 123.602 188.232 125.177 186.942 126.137L135.809 164.2C134.519 165.16 132.815 165.359 131.339 164.722L72.8081 139.471C71.332 138.835 70.3077 137.459 70.1211 135.862L62.7237 72.547C62.5372 70.9502 63.2167 69.3751 64.5063 68.4151L115.64 30.3514C116.929 29.3914 118.633 29.1924 120.109 29.8292L178.64 55.0803Z" stroke="#FFA200"/>
    <path d="M164.615 80.2247C166.255 80.9323 167.393 82.4612 167.6 84.2355L174.997 147.55C175.205 149.324 174.45 151.075 173.017 152.141L121.883 190.205C120.45 191.271 118.557 191.493 116.917 190.785L58.3863 165.534C56.7461 164.826 55.608 163.298 55.4007 161.523L48.0034 98.2085C47.7961 96.4343 48.5511 94.6842 49.984 93.6175L101.117 55.5539C102.55 54.4872 104.443 54.266 106.084 54.9736L164.615 80.2247Z" fill="#FFA200" fill-opacity="0.15"/>
  </symbol>
  <symbol id="icon-sign" viewBox="0 0 237 210" fill="none">
    <path d="M70.0457 40.5119C65.9462 38.5541 65.3853 43.0302 65.439 44.9918C65.5574 49.3471 64.7671 53.5126 63.6637 57.5504C61.4397 65.6684 58.6167 73.6211 55.537 81.4197C52.4037 89.3609 48.8013 97.1206 44.4316 104.512C40.1391 111.77 35.1985 118.994 28.8797 125.064C27.506 126.384 25.8019 127.731 23.3772 127.89C20.779 128.06 18.1345 126.62 16.3163 124.866C12.2018 120.896 12.7875 115.99 13.1968 111.919C12.4171 112.107 11.6373 112.295 10.8626 112.482C13.0888 113.706 14.7053 115.305 15.452 117.28C16.0383 118.831 19.0134 118.811 18.4239 117.246C17.4464 114.684 15.4096 112.38 12.4703 110.768C11.3999 110.18 10.2293 110.386 10.1361 111.331C9.75167 115.14 9.39806 119.309 11.8386 123.309C13.711 126.374 17.3935 129.332 21.5187 130.13C25.9448 130.985 29.1721 129.003 31.4773 126.787C34.6734 123.718 37.3951 120.267 39.9848 116.816C50.8156 102.367 57.7637 85.8883 63.3719 69.057C64.9195 64.4112 66.5075 59.7556 67.527 54.9273C67.9932 52.7207 68.3424 50.4762 68.4614 48.1805C68.4849 47.72 68.3331 42.2267 69.1813 42.6317C71.0202 43.5065 71.8756 41.3863 70.0457 40.5119Z" fill="#FFA200"/>
    <path d="M34.4231 70.3538C37.5025 61.3583 42.0447 52.9396 48.0469 45.3398C50.944 41.6717 54.1179 38.1198 57.7451 34.9336C60.9173 32.1471 65.2263 28.8673 70.6148 28.6383C77.4441 28.3458 78.3816 34.3864 79.2029 38.3049C80.1311 42.734 80.5729 47.1356 80.5681 51.457C80.558 60.034 78.7585 68.2527 75.2975 75.7775C73.3389 80.0321 70.8509 84.0511 67.8328 87.7586C66.4037 89.5167 64.8602 91.2085 63.2069 92.8226C61.8353 94.1603 59.6806 97.1941 56.8411 96.7135C57.2818 96.9984 57.7186 97.2817 58.1593 97.5666C57.0364 95.5964 57.1469 93.6688 58.4361 92.2087C59.432 91.0761 56.8322 89.3584 55.8352 90.4938C53.9819 92.5984 53.8654 95.3915 55.4746 98.2176C55.7059 98.6243 56.2677 98.9816 56.7928 99.0708C59.3807 99.508 61.1743 98.6021 62.6954 97.3681C64.5695 95.8506 66.2515 94.166 67.8502 92.4508C71.101 88.9565 73.8632 85.1381 76.1347 81.09C80.6771 73.0067 83.2021 63.9265 83.5819 54.4318C83.7727 49.6766 83.4016 44.8106 82.4988 39.9054C81.7932 36.0833 81.3053 30.4069 76.3232 27.6356C70.976 24.6628 65.0435 26.7971 61.2688 28.8448C56.6726 31.34 53.1654 34.8809 49.9013 38.4191C41.5487 47.4506 35.3529 57.8647 31.4877 69.1568C31.0131 70.5447 33.9461 71.7473 34.4231 70.3538Z" fill="#FFA200"/>
    <path d="M74.8875 111.496C87.1058 90.7683 98.6191 69.6872 109.398 48.2702C112.477 42.1515 115.495 36.0044 118.455 29.8306C117.454 29.531 116.458 29.233 115.456 28.9362C108.591 62.9633 92.0728 93.5203 82.7208 126.674C80.126 135.881 78.0997 145.282 76.9625 154.922C76.8121 156.209 79.6166 157.066 79.962 155.816C83.4453 143.132 87.7492 130.697 93.6417 118.956C96.6199 113.03 99.9915 107.28 103.874 101.811C105.841 99.0361 107.939 96.3311 110.164 93.7073C111.184 92.5055 112.224 91.3189 113.31 90.1571C113.723 89.7141 114.266 88.8867 115.138 88.976C116.239 89.0862 116.733 90.2477 117.018 90.992C117.705 92.7879 117.416 94.5834 117.393 96.3068C117.368 98.2724 117.34 100.233 117.314 102.199C117.259 106.23 117.207 110.263 117.152 114.294C117.136 115.442 119.2 116.323 119.982 115.448C123.055 112.02 126.128 108.591 129.207 105.161C128.326 104.983 127.444 104.804 126.563 104.626C127.546 106.447 128.525 108.266 129.508 110.088C129.913 110.841 131.239 111.214 131.9 110.813C137.204 107.591 140.701 103.066 143.761 98.3169C147.119 93.0941 150.198 87.7251 153.138 82.2958C159.23 71.0402 164.629 59.4665 170.024 47.8939C169.045 47.4949 168.067 47.0959 167.089 46.6969C159.771 64.8992 152.79 83.2388 146.117 101.697C139.636 119.626 132.579 137.537 128.847 156.429C126.874 166.427 125.879 176.78 127.777 187.529C128.032 188.974 130.645 189.037 130.79 187.807C134.784 154.763 158.601 129.099 188.041 110.166C196.202 104.916 204.837 100.106 213.732 95.5767C215.207 94.8267 213.1 92.7281 211.632 93.4741C179.209 109.974 149.722 130.972 135.495 160.665C131.506 168.994 128.853 177.894 127.728 187.213C128.731 187.306 129.738 187.398 130.741 187.491C129.032 177.812 129.837 168.428 131.455 159.379C133.134 149.99 135.857 140.915 138.843 131.96C144.911 113.765 151.521 95.764 158.317 77.8453C162.118 67.8191 166.021 57.8343 170.017 47.8879C170.566 46.5203 167.702 45.3592 167.082 46.6909C161.855 57.8977 156.626 69.1074 150.767 80.0271C147.875 85.4197 144.836 90.7432 141.56 95.9464C138.533 100.749 135.133 105.461 129.792 108.708C130.588 108.95 131.389 109.191 132.185 109.433C131.202 107.612 130.223 105.793 129.24 103.972C128.754 103.07 127.163 102.809 126.596 103.436C123.523 106.865 120.45 110.293 117.371 113.723C118.315 114.108 119.258 114.492 120.201 114.877C120.256 110.846 120.308 106.813 120.363 102.782C120.389 100.816 120.417 98.8549 120.442 96.8893C120.464 95.2475 120.642 93.5908 120.257 91.892C119.724 89.5607 117.664 86.3073 114.15 86.4852C112.648 86.5633 111.703 87.3812 110.903 88.2123C109.525 89.6429 108.245 91.1492 106.986 92.6579C97.3834 104.139 90.3179 117.111 84.912 130.681C81.8053 138.479 79.2462 146.49 77.0171 154.609C78.0179 154.909 79.0147 155.207 80.0166 155.503C84.1374 120.693 100.11 89.8179 110.968 57.2913C113.999 48.2135 116.607 38.9862 118.513 29.532C118.778 28.21 116.046 27.5331 115.514 28.6376C105.152 50.241 94.064 71.5218 82.2518 92.4515C78.878 98.4304 75.4426 104.381 71.9509 110.302C71.2046 111.572 74.1446 112.758 74.8875 111.496Z" fill="#FFA200"/>
    <path d="M183.408 143.657C192.38 139.553 201.779 135.949 211.57 132.859C213.22 132.339 211.766 129.994 210.105 130.52C200.095 133.674 190.48 137.361 181.311 141.556C179.79 142.254 181.898 144.349 183.408 143.657Z" fill="#FFA200"/>
  </symbol>
</svg>
